<svg xmlns="http://www.w3.org/2000/svg" data-graph-target="svg" font-family="Fira Sans, system, Arial, Helvetica, sans-serif" style="background-color:none" viewBox="0 0 800 800">
  <clipPath id="a">
    <path d="M50 50h700v700H50z"/>
  </clipPath>
  <circle cx="400" cy="400" r="350" fill="transparent" stroke="#555" stroke-dasharray="0.75,2" stroke-opacity=".75" stroke-width=".25" clip-path="url(#a)"/>
  <circle cx="400" cy="400" r="262.5" fill="transparent" stroke="#555" stroke-dasharray="0.75,2" stroke-opacity=".75" stroke-width=".25" clip-path="url(#a)"/>
  <circle cx="400" cy="400" r="175" fill="transparent" stroke="#555" stroke-dasharray="0.75,2" stroke-opacity=".75" stroke-width=".25" clip-path="url(#a)"/>
  <circle cx="400" cy="400" r="87.5" fill="transparent" stroke="#555" stroke-dasharray="0.75,2" stroke-opacity=".75" stroke-width=".25" clip-path="url(#a)"/>
  <path stroke="#555" stroke-dasharray="0.75,2" stroke-opacity=".75" stroke-width=".25" d="m400 400 303.109-175" clip-path="url(#a)"/>
  <text x="718.264" y="216.25" fill="#a5a5b5" clip-path="url(#a)" font-size="9" text-anchor="middle" transform="rotate(60 718.264 216.25)">30°</text>
  <path stroke="#555" stroke-dasharray="0.75,2" stroke-opacity=".75" stroke-width=".25" d="M400 400 575 96.891" clip-path="url(#a)"/>
  <text x="583.75" y="81.736" fill="#a5a5b5" clip-path="url(#a)" font-size="9" text-anchor="middle" transform="rotate(30 583.75 81.736)">60°</text>
  <path stroke="#555" stroke-dasharray="0.75,2" stroke-opacity=".75" stroke-width=".25" d="M400 400 225 96.891" clip-path="url(#a)"/>
  <text x="216.25" y="81.736" fill="#a5a5b5" clip-path="url(#a)" font-size="9" text-anchor="middle" transform="rotate(330 216.25 81.736)">120°</text>
  <path stroke="#555" stroke-dasharray="0.75,2" stroke-opacity=".75" stroke-width=".25" d="M400 400 96.891 225" clip-path="url(#a)"/>
  <text x="81.736" y="216.25" fill="#a5a5b5" clip-path="url(#a)" font-size="9" text-anchor="middle" transform="rotate(300 81.736 216.25)">150°</text>
  <path stroke="#555" stroke-dasharray="0.75,2" stroke-opacity=".75" stroke-width=".25" d="M400 400 96.891 575" clip-path="url(#a)"/>
  <text x="81.736" y="583.75" fill="#a5a5b5" clip-path="url(#a)" font-size="9" text-anchor="middle" transform="rotate(240 81.736 583.75)">210°</text>
  <path stroke="#555" stroke-dasharray="0.75,2" stroke-opacity=".75" stroke-width=".25" d="M400 400 225 703.109" clip-path="url(#a)"/>
  <text x="216.25" y="718.264" fill="#a5a5b5" clip-path="url(#a)" font-size="9" text-anchor="middle" transform="rotate(210 216.25 718.264)">240°</text>
  <path stroke="#555" stroke-dasharray="0.75,2" stroke-opacity=".75" stroke-width=".25" d="m400 400 175 303.109" clip-path="url(#a)"/>
  <text x="583.75" y="718.264" fill="#a5a5b5" clip-path="url(#a)" font-size="9" text-anchor="middle" transform="rotate(150 583.75 718.264)">300°</text>
  <path stroke="#555" stroke-dasharray="0.75,2" stroke-opacity=".75" stroke-width=".25" d="m400 400 303.109 175" clip-path="url(#a)"/>
  <text x="718.264" y="583.75" fill="#a5a5b5" clip-path="url(#a)" font-size="9" text-anchor="middle" transform="rotate(120 718.264 583.75)">330°</text>
  <text x="760" y="400" fill="#a5a5b5" font-size="9" text-anchor="middle" transform="rotate(90 760 400)">0°</text>
  <text x="30" y="400" fill="#a5a5b5" font-size="9" text-anchor="middle" transform="rotate(270 25 400)">180°</text>
  <text x="400" y="30" fill="#a5a5b5" font-size="9" text-anchor="middle">90°</text>
  <text x="400" y="782" fill="#a5a5b5" font-size="9" text-anchor="middle" transform="rotate(180 400 780)">270°</text>
  <path stroke="#dedede" stroke-opacity=".75" stroke-width=".25" d="M431.818 50v700M368.182 50v700M50 368.182h700M50 431.818h700M463.636 50v700M336.364 50v700M50 336.364h700M50 463.636h700M495.455 50v700M304.545 50v700M50 304.545h700M50 495.455h700M527.273 50v700M272.727 50v700M50 272.727h700M50 527.273h700M559.091 50v700M240.909 50v700M50 240.909h700M50 559.091h700M590.909 50v700M209.091 50v700M50 209.091h700M50 590.909h700M622.727 50v700M177.273 50v700M50 177.273h700M50 622.727h700M654.545 50v700M145.455 50v700M50 145.455h700M50 654.545h700M686.364 50v700M113.636 50v700M50 113.636h700M50 686.364h700M718.182 50v700M81.818 50v700M50 81.818h700M50 718.182h700"/>
  <path stroke="#a5a5b5" stroke-width=".5" d="M50 400h700M400 50v700"/>
  <text x="40" y="368.182" font-size="10" text-anchor="end">0.02</text>
  <text x="40" y="431.818" font-size="10" text-anchor="end">-0.02</text>
  <text x="463.636" y="765" font-size="10" text-anchor="middle">0.05</text>
  <text x="336.364" y="765" font-size="10" text-anchor="middle">-0.05</text>
  <text x="40" y="336.364" font-size="10" text-anchor="end">0.05</text>
  <text x="40" y="463.636" font-size="10" text-anchor="end">-0.05</text>
  <text x="40" y="304.545" font-size="10" text-anchor="end">0.07</text>
  <text x="40" y="495.455" font-size="10" text-anchor="end">-0.07</text>
  <text x="527.273" y="765" font-size="10" text-anchor="middle">0.09</text>
  <text x="272.727" y="765" font-size="10" text-anchor="middle">-0.09</text>
  <text x="40" y="272.727" font-size="10" text-anchor="end">0.09</text>
  <text x="40" y="527.273" font-size="10" text-anchor="end">-0.09</text>
  <text x="40" y="240.909" font-size="10" text-anchor="end">0.11</text>
  <text x="40" y="559.091" font-size="10" text-anchor="end">-0.11</text>
  <text x="590.909" y="765" font-size="10" text-anchor="middle">0.14</text>
  <text x="209.091" y="765" font-size="10" text-anchor="middle">-0.14</text>
  <text x="40" y="209.091" font-size="10" text-anchor="end">0.14</text>
  <text x="40" y="590.909" font-size="10" text-anchor="end">-0.14</text>
  <text x="40" y="177.273" font-size="10" text-anchor="end">0.16</text>
  <text x="40" y="622.727" font-size="10" text-anchor="end">-0.16</text>
  <text x="654.545" y="765" font-size="10" text-anchor="middle">0.18</text>
  <text x="145.455" y="765" font-size="10" text-anchor="middle">-0.18</text>
  <text x="40" y="145.455" font-size="10" text-anchor="end">0.18</text>
  <text x="40" y="654.545" font-size="10" text-anchor="end">-0.18</text>
  <text x="40" y="113.636" font-size="10" text-anchor="end">0.20</text>
  <text x="40" y="686.364" font-size="10" text-anchor="end">-0.20</text>
  <text x="718.182" y="765" font-size="10" text-anchor="middle">0.23</text>
  <text x="81.818" y="765" font-size="10" text-anchor="middle">-0.23</text>
  <text x="40" y="81.818" font-size="10" text-anchor="end">0.23</text>
  <text x="40" y="718.182" font-size="10" text-anchor="end">-0.23</text>
  <text x="400" y="765" font-size="12" text-anchor="middle">0</text>
  <text x="40" y="400" font-size="12" text-anchor="end">0</text>
  <text x="730" y="392" fill="#a5a5b5" font-size="10" text-anchor="end">a+ magenta</text>
  <use xmlns:xlink="http://www.w3.org/1999/xlink" xlink:href="/fonts/bootstrap-icons.svg#arrow-right-short" width="16" height="16" fill="#a5a5b5" transform="translate(731 380)"/>
  <text x="70" y="392" fill="#a5a5b5" font-size="10">green a-</text>
  <use xmlns:xlink="http://www.w3.org/1999/xlink" xlink:href="/fonts/bootstrap-icons.svg#arrow-left-short" width="16" height="16" fill="#a5a5b5" transform="translate(53 380)"/>
  <text fill="#a5a5b5" font-size="10" transform="translate(410 80)">yellow b+</text>
  <use xmlns:xlink="http://www.w3.org/1999/xlink" xlink:href="/fonts/bootstrap-icons.svg#arrow-up-short" width="16" height="16" fill="#a5a5b5" transform="translate(403 54)"/>
  <text fill="#a5a5b5" font-size="10" transform="translate(410 727)">blue b-</text>
  <use xmlns:xlink="http://www.w3.org/1999/xlink" xlink:href="/fonts/bootstrap-icons.svg#arrow-down-short" width="16" height="16" fill="#a5a5b5" transform="translate(403 730)"/>
  <text x="790" y="790" fill="transparent" class="svg-footer" font-size="10" text-anchor="end">artistpigments.org</text>
  <text x="20" y="790" fill="transparent" class="svg-footer" font-size="10">OKLAB</text>
  <g cursor="pointer" data-group="active">
    <circle cx="399.008" cy="380.958" r="8" fill="#f6f3e9" stroke="#f6f3e9" data-action="click-&gt;experiments--plane#show_details" data-bs-html="true" data-bs-title="#F6F3E9" data-bs-toggle="dynamic-tooltip" data-filter-lab-l="95.871" data-filter-munsell-value="undefined" data-graph-element="dynamic" data-id="color-721049c7-5352-423a-b101-525bec429ced" data-path="undefined"/>
    <circle cx="420.068" cy="349.328" r="8" fill="#998570" stroke="#998570" data-action="click-&gt;experiments--plane#show_details" data-bs-html="true" data-bs-title="#998570" data-bs-toggle="dynamic-tooltip" data-filter-lab-l="56.963" data-filter-munsell-value="undefined" data-graph-element="dynamic" data-id="color-e03df8ef-eb2d-4890-955b-62e08d3a5cce" data-path="undefined"/>
    <circle cx="409.605" cy="345.598" r="8" fill="#d7c7ad" stroke="#d7c7ad" data-action="click-&gt;experiments--plane#show_details" data-bs-html="true" data-bs-title="#D7C7AD" data-bs-toggle="dynamic-tooltip" data-filter-lab-l="81.069" data-filter-munsell-value="undefined" data-graph-element="dynamic" data-id="color-54a14408-8a08-4c8b-98a7-d7572555664c" data-path="undefined"/>
    <circle cx="389.145" cy="400.412" r="8" fill="#161b1a" stroke="#161b1a" data-action="click-&gt;experiments--plane#show_details" data-bs-html="true" data-bs-title="#161B1A" data-bs-toggle="dynamic-tooltip" data-filter-lab-l="9.213" data-filter-munsell-value="undefined" data-graph-element="dynamic" data-id="color-fe553ecf-1812-4ca9-adc8-3fbccc7362f8" data-path="undefined"/>
    <circle cx="422.515" cy="354.614" r="8" fill="#6c5948" stroke="#6c5948" data-action="click-&gt;experiments--plane#show_details" data-bs-html="true" data-bs-title="#6C5948" data-bs-toggle="dynamic-tooltip" data-filter-lab-l="39.396" data-filter-munsell-value="undefined" data-graph-element="dynamic" data-id="color-883a99bb-722d-423b-a48f-2e99dc4ce0e7" data-path="undefined"/>
  </g>
</svg>
